<?xml version="1.0" standalone="no"?>
<!DOCTYPE svg PUBLIC "-//W3C//DTD SVG 20010904//EN"
 "http://www.w3.org/TR/2001/REC-SVG-20010904/DTD/svg10.dtd">
<svg version="1.0" xmlns="http://www.w3.org/2000/svg"
 width="345.000000pt" height="113.000000pt" viewBox="0 0 345.000000 113.000000"
 preserveAspectRatio="xMidYMid meet">
<metadata>
Created by potrace 1.16, written by Peter Selinger 2001-2019
</metadata>
<g transform="translate(0.000000,113.000000) scale(0.100000,-0.100000)"
fill="#000000" stroke="none">
<path d="M575 1039 c-78 -63 -122 -107 -192 -194 -77 -94 -123 -181 -123 -230
0 -85 83 -181 214 -245 127 -63 283 -100 300 -71 6 9 -38 62 -141 173 -117
125 -131 232 -55 405 22 51 54 113 71 138 38 56 38 65 4 65 -17 -1 -47 -16
-78 -41z"/>
<path d="M986 697 c-61 -34 -86 -91 -86 -194 0 -141 52 -213 152 -213 58 0
100 28 128 84 25 53 21 76 -14 76 -18 0 -26 -7 -31 -27 -18 -75 -101 -99 -148
-44 -63 75 -34 252 45 277 33 10 76 -15 90 -53 10 -28 17 -33 38 -31 21 2 25
8 23 31 -4 58 -73 117 -135 117 -13 0 -41 -10 -62 -23z"/>
<path d="M1345 707 c-43 -20 -93 -80 -102 -124 -14 -68 -8 -155 15 -199 33
-65 74 -94 133 -94 63 0 103 20 133 68 69 110 49 265 -45 334 -33 25 -96 32
-134 15z m113 -70 c28 -22 42 -67 42 -137 0 -110 -29 -150 -107 -150 -48 0
-78 25 -92 77 -29 104 6 210 74 226 25 5 66 -2 83 -16z"/>
<path d="M3032 704 c-91 -47 -80 -177 19 -218 92 -37 114 -51 117 -73 6 -42
-15 -63 -62 -63 -48 0 -86 30 -86 67 0 24 -36 41 -52 25 -19 -19 2 -84 37
-119 29 -29 40 -33 84 -33 57 0 105 20 121 49 5 11 10 44 10 74 0 49 -4 58
-29 79 -16 14 -56 32 -90 42 -68 19 -91 48 -70 87 26 50 108 44 124 -9 7 -24
15 -32 32 -32 32 0 39 25 20 65 -31 64 -112 91 -175 59z"/>
<path d="M1612 503 l3 -208 105 0 105 0 3 28 3 27 -80 0 -81 0 0 164 c0 90 -3
171 -6 180 -3 9 -17 16 -30 16 l-24 0 2 -207z"/>
<path d="M1874 697 c-2 -7 -3 -100 -2 -207 l3 -195 25 0 25 0 5 142 5 143 71
-137 c72 -140 89 -161 118 -150 15 6 16 28 14 209 l-3 203 -25 0 -25 0 -3
-140 -3 -139 -18 30 c-10 17 -44 81 -76 142 -49 97 -60 112 -81 112 -14 0 -27
-6 -30 -13z"/>
<path d="M2212 503 l3 -208 128 -3 127 -3 0 31 0 30 -100 0 -100 0 0 65 0 65
90 0 90 0 0 31 0 30 -90 -3 -90 -3 0 58 0 57 95 0 95 0 0 30 0 30 -125 0 -125
0 2 -207z"/>
<path d="M2510 696 c0 -8 23 -51 50 -94 28 -43 50 -85 50 -93 0 -9 -25 -54
-55 -102 -61 -97 -67 -117 -31 -117 20 0 34 15 73 80 26 44 50 80 53 80 3 0
27 -36 53 -80 39 -64 53 -80 72 -80 37 0 39 16 7 63 -40 58 -92 146 -92 156 0
12 90 160 101 166 21 13 8 35 -20 35 -25 0 -35 -9 -72 -70 -24 -38 -46 -70
-49 -70 -3 0 -23 30 -46 68 -32 53 -46 68 -67 70 -19 2 -27 -1 -27 -12z"/>
<path d="M3290 500 l0 -211 28 3 27 3 0 205 0 205 -27 3 -28 3 0 -211z"/>
<path d="M28 458 c-7 -13 -12 -57 -12 -98 -1 -64 3 -82 27 -122 75 -128 300
-199 491 -154 111 26 295 121 274 141 -3 4 -50 1 -104 -5 -149 -18 -312 5
-431 61 -71 34 -160 111 -188 163 -22 41 -39 45 -57 14z"/>
<path d="M1508 239 c-11 -6 -18 -22 -18 -40 0 -26 6 -33 40 -46 45 -18 52 -33
15 -33 -16 0 -25 6 -25 15 0 8 -9 15 -20 15 -25 0 -27 -31 -2 -52 30 -27 57
-30 85 -8 l26 21 21 -21 c15 -15 28 -19 43 -14 12 3 22 7 23 8 1 0 6 10 12 21
11 19 11 19 12 -2 0 -16 6 -23 20 -23 20 0 21 5 18 83 -2 65 -6 82 -18 82 -10
0 -16 -12 -18 -39 -3 -37 -4 -38 -18 -17 -26 36 -94 18 -94 -25 0 -12 -2 -12
-14 -2 -12 11 -12 14 0 21 19 11 18 23 -6 47 -22 22 -55 25 -82 9z"/>
<path d="M3117 244 c-4 -4 -7 -43 -7 -86 0 -61 3 -78 14 -78 8 0 18 4 21 10 4
6 16 3 31 -7 20 -13 30 -14 49 -5 14 7 25 17 25 24 1 8 6 6 14 -5 10 -13 24
-17 47 -15 37 3 56 27 44 54 -4 11 -7 27 -6 36 3 25 -40 43 -68 29 -11 -7 -21
-16 -21 -21 0 -6 -9 -1 -20 10 -24 24 -53 26 -70 5 -19 -23 -25 -18 -25 17 0
30 -14 46 -28 32z"/>
<path d="M2662 215 c-10 -22 -15 -24 -30 -14 -13 8 -28 9 -48 2 -27 -9 -29
-13 -29 -64 0 -43 3 -54 18 -57 14 -3 17 4 17 37 0 54 18 62 22 9 2 -31 8 -44
21 -46 14 -3 17 5 18 45 l2 48 7 -43 c7 -47 25 -66 49 -52 8 4 25 3 38 -3 19
-8 29 -6 54 12 l31 23 -7 -21 c-9 -29 11 -51 44 -51 41 0 51 17 51 91 0 64 -1
67 -26 73 -33 9 -60 0 -68 -21 -6 -14 -9 -14 -22 5 -16 24 -53 29 -71 11 -15
-15 -33 -3 -33 22 0 27 -25 24 -38 -6z"/>
<path d="M1892 192 c-16 -16 -22 -18 -26 -6 -3 8 -12 14 -21 14 -11 0 -15 -11
-15 -40 0 -22 -4 -40 -10 -40 -5 0 -10 18 -10 40 0 33 -3 40 -20 40 -17 0 -20
-7 -20 -49 0 -60 19 -84 58 -75 36 9 42 13 42 29 0 9 9 5 25 -11 18 -18 31
-23 43 -18 9 4 30 7 46 6 27 -1 28 0 22 31 l-5 32 14 -27 c23 -41 51 -53 81
-33 19 12 24 24 24 55 0 74 -63 97 -98 35 -11 -19 -11 -19 -12 3 0 15 -6 22
-19 22 -10 0 -32 3 -49 6 -22 5 -35 1 -50 -14z"/>
<path d="M2153 203 c-21 -4 -23 -10 -23 -64 0 -52 2 -59 20 -59 17 0 20 7 20
45 0 25 5 45 10 45 6 0 10 -20 10 -45 0 -38 3 -45 20 -45 12 0 20 7 20 17 0
13 5 12 26 -8 25 -23 26 -23 55 -6 27 15 32 15 53 2 35 -23 76 -5 76 34 0 16
-6 32 -12 34 -10 4 -10 6 0 6 30 2 -6 51 -38 51 -10 0 -26 -7 -35 -16 -15 -15
-17 -15 -34 0 -22 20 -40 20 -70 0 -22 -16 -24 -16 -33 0 -9 16 -21 17 -65 9z"/>
<path d="M2953 203 c-9 -3 -13 -26 -13 -65 0 -51 2 -59 18 -56 12 2 18 15 20
46 2 28 7 42 15 39 7 -2 11 -18 9 -40 -4 -42 16 -57 66 -50 31 5 32 6 32 58 0
30 -5 57 -12 63 -13 9 -111 13 -135 5z"/>
</g>
</svg>
